<svg xmlns="http://www.w3.org/2000/svg" width="400" height="400" viewBox="0 0 400 400" fill="none">
<rect width="400" height="400" fill="#FEFFFE"/>
<path d="M 10,143 H 25.77 V 198.71 L 50.66,172.09 H 72.99 L 44.37,203.51 L 74.39,240.42 H 51.42 L 27.09,209.01 H 25.77 V 240.42 H 10 V 143 Z" fill="#133D65"/>
<path d="M 192.08,172.09 H 210.34 V 208.07 C 210.34,219.68 214.21,226.67 223.09,226.67 C 232.18,226.67 236.88,219.46 236.88,206.31 V 172.09 H 256.71 V 240.11 H 237.92 V 232.9 H 237.6 C 233.73,239.15 227.48,241.75 218.4,241.75 C 203.31,241.75 192.08,232.25 192.08,212.31 V 172.09 Z" fill="#133D65"/>
<path d="M 269.06,172.09 H 287.32 V 180.72 H 287.64 C 291.83,173.84 298.39,170.71 306.96,170.71 C 323.99,170.71 333.92,181.15 333.92,199.91 V 240.42 H 315.02 V 202.34 C 315.02,192.95 309.32,187.47 300.96,187.47 C 292.39,187.47 287.64,193.72 287.64,205.54 V 240.11 H 269.06 V 172.09 Z" fill="#133D65"/>
<path d="M 355.31,222.12 V 188.11 H 342.19 V 172.09 H 356.16 V 155.6 L 374.74,150 V 172.09 H 389.21 V 188.11 H 374.42 V 215.76 C 374.42,223.71 377.66,226.14 383.47,226.14 C 386.19,226.14 388.91,225.61 390,225.18 V 240.42 C 387.9,241.17 383.04,241.59 379.9,241.59 C 366.03,241.59 355.31,234.82 355.31,222.12 Z" fill="#133D65"/>
<path d="M 128.81,145.71 L 84.08,171.98 L 96.74,180.31 L 128.81,160.8 V 145.71 Z" fill="#133D65"/>
<path d="M 134.09,145.71 L 177.78,171.98 L 166.19,180.1 L 134.09,160.8 V 145.71 Z" fill="#133D65"/>
<path d="M 81.25,176.32 L 93.91,184.44 V 219.15 L 81.25,227.69 V 176.32 Z" fill="#133D65"/>
<path d="M 180.61,175.47 L 167.95,184.44 V 218.1 L 180.61,226.64 V 175.47 Z" fill="#133D65"/>
<path d="M 84.61,231.48 L 96.74,223.76 L 128.81,241.75 V 257.77 L 84.61,231.48 Z" fill="#133D65"/>
<path d="M 133.66,257.77 L 177.78,231.48 L 166.19,223.76 L 133.66,241.75 V 257.77 Z" fill="#133D65"/>
<path d="M 100.39,185.93 L 111.11,178.19 L 112.43,177.34 V 212.64 L 127.93,222.23 C 123.72,226.78 116.03,227.53 111.32,224.72 L 100.39,217.95 V 185.93 Z" fill="#4EBCC1"/>
<path d="M 113.22,189.91 L 115.21,181.15 C 116.64,175.01 121.71,170.34 129.96,167.01 L 145.36,176.06 L 139.77,176.7 L 113.22,189.91 Z" fill="#4EBCC1"/>
<path d="M 135.81,181.15 L 145.96,177.34 C 148.68,176.38 151.19,177.02 153.19,178.4 L 161.76,184.22 V 218.17 L 150.17,226.3 V 189.27 L 135.81,181.15 Z" fill="#4EBCC1"/>
<path d="M 120.18,228.17 L 128.75,225.39 L 147.65,212.64 C 148.5,223.39 144.09,230.6 133.66,236.85 L 120.18,228.17 Z" fill="#4EBCC1"/>
</svg>