<svg xmlns="http://www.w3.org/2000/svg" width="466" height="213" viewBox="0 0 466 213" fill="none">
<path d="M 212.99,67.08 H 225.38 V 106.06 L 240.84,86.92 H 257.81 L 236.68,109.93 L 258.86,135.44 H 241.19 L 225.38,113.07 V 135.08 H 212.99 V 67.08 Z" fill="#173D61"/>
<path d="M 316.23,114.91 V 87.34 H 328.98 V 112.93 C 328.98,120.63 331.11,125.07 337.61,125.07 C 344.11,125.07 347.03,120.21 347.03,111.51 V 87.34 H 359.64 V 135.44 H 348.01 V 128.16 C 345.37,133.86 340.79,136.27 333.94,136.27 C 322.89,136.27 316.23,129.6 316.23,114.91 Z" fill="#173D61"/>
<path d="M 369.27,87.34 H 382.23 V 94.34 C 385.3,88.64 389.42,86.51 396.69,86.51 C 408.61,86.51 415.6,93.78 415.6,108.61 V 135.44 H 402.5 V 109.71 C 402.5,101.46 399.43,97.48 393.31,97.48 C 386.74,97.48 382.79,102.76 382.79,111.33 V 135.44 H 369.27 V 87.34 Z" fill="#173D61"/>
<path d="M 431.06,120.07 V 98.25 H 422.74 V 87.34 H 431.61 V 74.66 L 444.36,71.45 V 87.34 H 453.92 V 98.25 H 443.8 V 117.27 C 443.8,122.83 445.61,124.78 451.02,124.78 C 452.55,124.78 453.71,124.64 455.24,124.33 V 135.16 C 453.18,135.65 449.9,135.93 447.47,135.93 C 436.21,135.93 431.06,131.71 431.06,120.07 Z" fill="#173D61"/>
<path d="M 284.12,85.69 V 96.7 C 293.81,97.19 298.81,104.75 298.81,111.16 C 298.81,119.34 292.97,125.36 283.14,125.36 C 273.86,125.36 268.16,119.06 268.16,110.73 C 268.16,103.92 273.29,97.69 280.14,96.77 V 85.83 C 266.12,86.85 255.5,97.76 255.5,111.23 C 255.5,125.92 265.76,136.27 282.86,136.27 C 299.24,136.27 308.93,125.22 308.93,110.91 C 308.93,98.04 298.44,86.33 284.12,85.69 Z" fill="#173D61"/>
<path d="M 283.63,103.19 C 277.13,103.19 273.71,107.84 273.71,111.8 C 273.71,117.36 277.34,121.26 283.14,121.26 C 289.08,121.26 292.76,117.22 292.76,111.8 C 292.76,107.19 288.94,103.19 283.63,103.19 Z" fill="#4EBDC0"/>
<path d="M 14.27,55.07 L 92.51,9.23 V 35.91 L 36.94,67.82 L 14.27,55.07 Z" fill="#173D61"/>
<path d="M 10.96,61.16 L 32.16,74.73 V 136.06 L 10.96,150.12 V 61.16 Z" fill="#173D61"/>
<path d="M 15.21,157.89 L 36.94,142.85 L 93.01,176.71 V 203.77 L 15.21,157.89 Z" fill="#173D61"/>
<path d="M 101.74,203.77 L 178.64,158.1 L 157.94,143.9 L 101.74,176.71 V 203.77 Z" fill="#173D61"/>
<path d="M 184.12,61.16 L 161.02,74.73 V 136.82 L 184.4,150.12 L 184.12,61.16 Z" fill="#173D61"/>
<path d="M 101.74,9.23 L 178.78,54.64 L 157.94,67.82 L 101.74,35.63 V 9.23 Z" fill="#173D61"/>
<path d="M 66.08,62.92 L 42.11,76.22 V 136.13 L 56.73,144.18 C 68.06,150.34 81.72,148.63 91.98,139.61 L 62.31,123.18 V 87.7 C 62.31,77.83 63.08,70.21 66.08,62.92 Z" fill="#4EBDC0"/>
<path d="M 96.96,45.14 C 78.12,53.63 66.42,61.44 66.71,84.81 L 101.11,64.11 C 107.47,60.43 114.32,58.16 120.22,58.16 C 113.9,53.56 105.44,48.35 96.96,45.14 Z" fill="#4EBDC0"/>
<path d="M 125.15,130.04 L 98.21,146.47 C 90.87,151.61 83.95,154.96 73.26,153.41 L 97.92,168.45 C 116.62,159.96 125.15,153.76 125.15,130.04 Z" fill="#4EBDC0"/>
<path d="M 150.67,75.09 L 133.5,65.61 C 123.17,61.01 110.14,64.76 102.39,72.46 L 129.47,87.7 V 130.94 C 129.47,137.94 128.49,143.76 126.75,149.11 L 150.67,135.58 V 75.09 Z" fill="#4EBDC0"/>
</svg>