<svg xmlns="http://www.w3.org/2000/svg" width="256" height="256" viewBox="0 0 256 256" fill="none">
<path d="M 127.15,49.43 L 110.85,59.4 C 97.91,67.11 92.19,79.71 92.67,94.01 V 100.69 L 137.71,73.68 C 145.06,69.33 151.79,68.61 158.45,68.15 L 127.85,49.43 H 127.15 Z" fill="#55C5C7"/>
<path d="M 177.78,78.99 C 164.83,71.67 148.76,73.13 133.92,83.96 L 170.07,105.07 V 159.43 C 170.07,169.08 167.78,177.51 165.21,184.11 L 194.31,167.38 V 89.66 L 177.78,78.99 Z" fill="#55C5C7"/>
<path d="M 163.66,155.21 L 116.91,183.81 C 110.99,187.32 104.81,188.44 98.22,188.19 L 127.85,205.62 L 144.52,195.71 C 157.91,187.76 164.61,174.91 163.66,158.81 V 155.21 Z" fill="#55C5C7"/>
<path d="M 86.04,151.37 V 94.01 C 86.04,85.81 88.22,78.18 90.81,71.7 L 61.29,89.66 V 167.38 L 76.21,177.01 C 88.91,184.94 106.27,183.39 120.95,172.86 L 86.04,151.37 Z" fill="#55C5C7"/>
<path d="M 132.72,5.63 V 39.44 L 200.82,79.28 L 230.76,62.42 L 133.32,5.63 H 132.72 Z" fill="#153961"/>
<path d="M 236.39,71.53 L 206.71,88.66 V 167.91 L 236.39,184.46 V 71.53 Z" fill="#153961"/>
<path d="M 132.72,215.82 V 250.37 L 230.16,193.58 V 192.98 L 200.52,176.43 L 132.72,215.82 Z" fill="#153961"/>
<path d="M 24.95,193.58 L 122.54,250.37 V 215.82 L 54.59,176.43 L 24.95,192.98 V 193.58 Z" fill="#153961"/>
<path d="M 19.08,71.53 V 184.46 L 48.72,167.91 V 88.66 L 19.08,71.53 Z" fill="#153961"/>
<path d="M 24.95,62.42 L 54.89,79.28 L 122.39,39.44 V 5.63 H 122.1 L 24.95,61.82 V 62.42 Z" fill="#153961"/>
</svg>